<?xml version="1.0" encoding="UTF-8" standalone="no"?>
<svg
   width="171.79984"
   height="40.665112"
   version="1.1"
   id="svg7268"
   sodipodi:docname="javascript-horizontal.svg"
   inkscape:version="1.2.2 (b0a8486541, 2022-12-01)"
   xmlns:inkscape="http://www.inkscape.org/namespaces/inkscape"
   xmlns:sodipodi="http://sodipodi.sourceforge.net/DTD/sodipodi-0.dtd"
   xmlns="http://www.w3.org/2000/svg"
   xmlns:svg="http://www.w3.org/2000/svg">
  <defs
     id="defs7272" />
  <sodipodi:namedview
     id="namedview7270"
     pagecolor="#ffffff"
     bordercolor="#000000"
     borderopacity="0.25"
     inkscape:showpageshadow="2"
     inkscape:pageopacity="0.0"
     inkscape:pagecheckerboard="0"
     inkscape:deskcolor="#d1d1d1"
     showgrid="false"
     inkscape:zoom="5.4583333"
     inkscape:cx="72.641221"
     inkscape:cy="7.7862595"
     inkscape:window-width="1452"
     inkscape:window-height="1233"
     inkscape:window-x="2000"
     inkscape:window-y="723"
     inkscape:window-maximized="0"
     inkscape:current-layer="svg7268" />
  <g
     stroke="#000000"
     stroke-width="2.129"
     id="g7266"
     transform="translate(-36.827201,-11.74713)"
     style="stroke:#eeeef1;stroke-opacity:1;fill:#eeeef1;fill-opacity:1">
    <path
       d="m 41.405,48.923 c -0.636,0 -1.2,-0.043 -1.666,-0.132 -0.474,-0.075 -0.886,-0.18 -1.235,-0.318 V 45.48 a 10.45,10.45 0 0 0 1.366,0.262 10.33,10.33 0 0 0 1.572,0.113 5.25,5.25 0 0 0 1.385,-0.187 3.07,3.07 0 0 0 1.273,-0.636 c 0.387,-0.312 0.7,-0.742 0.936,-1.3 0.236,-0.558 0.356,-1.248 0.356,-2.096 v -27.36 h 3.5 V 41.27 c 0,1.3 -0.187,2.445 -0.56,3.406 -0.362,0.96 -0.873,1.753 -1.535,2.377 -0.65,0.636 -1.435,1.104 -2.358,1.404 -0.9,0.312 -2.154,0.468 -3.265,0.468 M 66.287,38.8 h -0.15 c -0.412,0.56 -0.823,1.048 -1.235,1.46 a 6.05,6.05 0 0 1 -1.347,0.992 c -0.487,0.262 -1.03,0.455 -1.628,0.58 -0.598,0.125 -1.3,0.187 -2.077,0.187 -0.86,0 -1.653,-0.126 -2.377,-0.374 a 5.04,5.04 0 0 1 -1.89,-1.104 c -0.524,-0.5 -0.936,-1.148 -1.235,-1.9 -0.3,-0.773 -0.45,-1.684 -0.45,-2.732 0,-2.046 0.717,-3.618 2.152,-4.716 1.447,-1.098 3.643,-1.697 6.587,-1.797 l 3.443,-0.132 v -1.3 c 0,-0.836 -0.094,-1.535 -0.28,-2.096 -0.175,-0.56 -0.437,-1 -0.786,-1.347 -0.337,-0.35 -0.76,-0.6 -1.273,-0.75 -0.5,-0.15 -1.073,-0.224 -1.722,-0.224 a 9.1,9.1 0 0 0 -2.901,0.449 c -0.886,0.3 -1.74,0.66 -2.564,1.085 l -1.198,-2.564 c 0.923,-0.5 1.952,-0.923 3.088,-1.273 a 12.09,12.09 0 0 1 3.574,-0.524 c 1.273,0 2.37,0.132 3.294,0.393 0.936,0.25 1.703,0.655 2.302,1.216 0.6,0.55 1.067,1.254 1.366,2.115 0.299,0.861 0.45,1.903 0.45,3.125 v 14.073 h -2.458 z m -5.558,0.458 c 0.76,0 1.466,-0.12 2.115,-0.356 0.649,-0.236 1.2,-0.593 1.684,-1.067 0.474,-0.487 0.842,-1.092 1.104,-1.815 0.274,-0.736 0.412,-1.597 0.412,-2.583 v -1.853 l -2.676,0.132 c -1.123,0.05 -2.065,0.175 -2.826,0.374 -0.761,0.199 -1.372,0.48 -1.834,0.842 a 2.99,2.99 0 0 0 -0.973,1.291 c -0.2,0.5 -0.3,1.067 -0.3,1.703 0,1.148 0.3,2 0.898,2.526 0.6,0.537 1.4,0.805 2.395,0.805 m 11.56,-18.16 h 3.518 l 3.724,11.433 0.487,1.6 0.56,1.984 0.505,1.9 0.318,1.366 h 0.13 l 0.318,-1.366 0.505,-1.9 0.56,-1.984 0.487,-1.6 3.724,-11.434 h 3.518 L 83.624,41.644 H 79.3 Z M 104.56,38.8 h -0.15 c -0.412,0.56 -0.823,1.048 -1.235,1.46 a 6.05,6.05 0 0 1 -1.347,0.992 c -0.487,0.262 -1.03,0.455 -1.628,0.58 -0.598,0.125 -1.3,0.187 -2.077,0.187 -0.86,0 -1.653,-0.126 -2.377,-0.374 a 5.04,5.04 0 0 1 -1.89,-1.104 c -0.524,-0.5 -0.936,-1.148 -1.235,-1.9 -0.3,-0.773 -0.45,-1.684 -0.45,-2.732 0,-2.046 0.717,-3.618 2.152,-4.716 1.447,-1.098 3.643,-1.697 6.587,-1.797 l 3.443,-0.132 v -1.3 c 0,-0.836 -0.094,-1.535 -0.28,-2.096 -0.175,-0.56 -0.437,-1 -0.786,-1.347 -0.337,-0.35 -0.76,-0.6 -1.273,-0.75 -0.5,-0.15 -1.073,-0.224 -1.722,-0.224 a 9.1,9.1 0 0 0 -2.901,0.449 c -0.886,0.3 -1.74,0.66 -2.564,1.085 l -1.198,-2.564 c 0.923,-0.5 1.952,-0.923 3.088,-1.273 a 12.09,12.09 0 0 1 3.574,-0.524 c 1.273,0 2.37,0.132 3.294,0.393 0.936,0.25 1.703,0.655 2.302,1.216 0.6,0.55 1.067,1.254 1.366,2.115 0.299,0.861 0.45,1.903 0.45,3.125 v 14.073 h -2.45 z m -5.558,0.467 c 0.76,0 1.466,-0.12 2.115,-0.356 0.649,-0.236 1.2,-0.593 1.684,-1.067 0.474,-0.487 0.842,-1.092 1.104,-1.815 0.274,-0.736 0.412,-1.597 0.412,-2.583 v -1.853 l -2.676,0.132 c -1.123,0.05 -2.065,0.175 -2.826,0.374 -0.761,0.199 -1.372,0.48 -1.834,0.842 a 2.99,2.99 0 0 0 -0.973,1.291 c -0.2,0.5 -0.3,1.067 -0.3,1.703 0,1.148 0.3,2 0.898,2.526 0.6,0.537 1.4,0.805 2.395,0.805 m 29.694,-4.94 c 0,1.2 -0.218,2.295 -0.655,3.256 -0.424,0.948 -1.036,1.753 -1.834,2.414 -0.798,0.661 -1.772,1.167 -2.92,1.516 -1.148,0.337 -2.44,0.505 -3.874,0.505 -1.385,0 -2.682,-0.113 -3.892,-0.337 -1.198,-0.213 -2.202,-0.53 -3.013,-0.955 v -3.33 l 1.44,0.6 1.722,0.505 1.853,0.374 a 13.97,13.97 0 0 0 1.9,0.132 c 1.996,0 3.468,-0.374 4.416,-1.123 0.96,-0.75 1.44,-1.822 1.44,-3.22 0,-0.674 -0.094,-1.26 -0.28,-1.76 -0.175,-0.5 -0.493,-0.954 -0.954,-1.366 -0.45,-0.424 -1.054,-0.83 -1.815,-1.216 -0.76,-0.4 -1.722,-0.83 -2.882,-1.3 -1.1,-0.437 -2.077,-0.9 -2.9,-1.422 -0.8,-0.524 -1.485,-1.1 -2.02,-1.76 a 6.76,6.76 0 0 1 -1.18,-2.208 c -0.25,-0.823 -0.374,-1.76 -0.374,-2.807 0,-1.098 0.2,-2.077 0.6,-2.938 0.4,-0.861 0.96,-1.585 1.684,-2.17 0.724,-0.6 1.584,-1.054 2.582,-1.366 0.998,-0.312 2.12,-0.468 3.33,-0.468 1.485,0 2.82,0.143 4.005,0.43 1.185,0.274 2.24,0.63 3.163,1.067 l -1.254,2.92 c -0.8,-0.362 -1.734,-0.674 -2.77,-0.936 a 12.24,12.24 0 0 0 -3.18,-0.412 c -1.522,0 -2.7,0.356 -3.537,1.067 -0.836,0.7 -1.254,1.647 -1.254,2.844 0,0.7 0.094,1.33 0.28,1.853 0.187,0.512 0.5,0.98 0.936,1.404 0.437,0.412 1,0.805 1.722,1.18 a 31.19,31.19 0 0 0 2.657,1.16 c 1.135,0.45 2.127,0.9 2.975,1.385 0.86,0.474 1.578,1 2.152,1.6 a 5.89,5.89 0 0 1 1.291,2.077 c 0.3,0.786 0.458,1.75 0.458,2.824 m 12.663,7.652 c -1.26,0 -2.44,-0.194 -3.537,-0.58 a 7.42,7.42 0 0 1 -2.863,-1.871 c -0.8,-0.86 -1.447,-1.952 -1.9,-3.275 -0.462,-1.335 -0.692,-2.938 -0.692,-4.8 0,-1.96 0.237,-3.618 0.7,-4.978 0.474,-1.372 1.123,-2.483 1.946,-3.33 0.836,-0.86 1.8,-1.485 2.92,-1.87 1.12,-0.385 2.302,-0.58 3.574,-0.58 a 12.69,12.69 0 0 1 2.844,0.318 c 0.936,0.213 1.715,0.474 2.34,0.786 l -1,2.882 a 10.06,10.06 0 0 0 -0.954,-0.356 9.21,9.21 0 0 0 -1.085,-0.318 9.1,9.1 0 0 0 -1.104,-0.225 c -0.362,-0.062 -0.705,-0.094 -1.03,-0.094 -1.96,0 -3.387,0.63 -4.285,1.9 -0.898,1.247 -1.347,3.194 -1.347,5.838 0,2.633 0.45,4.56 1.347,5.783 0.9,1.2 2.3,1.815 4.136,1.815 1,0 1.92,-0.113 2.732,-0.337 0.823,-0.237 1.572,-0.5 2.246,-0.823 v 3.032 a 9.08,9.08 0 0 1 -2.171,0.823 c -0.76,0.187 -1.747,0.28 -2.857,0.28 m 18.597,-21.296 1.216,0.055 a 8.67,8.67 0 0 1 1.16,0.132 l -0.45,3.144 -1.085,-0.15 c -0.362,-0.05 -0.705,-0.075 -1.03,-0.075 -0.786,0 -1.503,0.162 -2.152,0.487 -0.65,0.312 -1.2,0.767 -1.684,1.366 -0.462,0.586 -0.823,1.298 -1.085,2.133 -0.25,0.823 -0.374,1.74 -0.374,2.75 v 11.078 h -3.406 V 21.098 h 2.77 l 0.412,3.76 h 0.15 l 0.992,-1.553 a 7.06,7.06 0 0 1 1.198,-1.3 5.43,5.43 0 0 1 1.497,-0.917 c 0.55,-0.237 1.23,-0.356 1.93,-0.356"
       id="path7260"
       style="stroke:#eeeef1;stroke-opacity:1;fill:#eeeef1;fill-opacity:1" />
    <path
       d="M 169.507,41.644 H 166.1 V 21.096 h 3.406 V 41.644 M 166.4,13.9 c 0.387,-0.337 0.86,-0.505 1.422,-0.505 0.274,0 0.53,0.043 0.767,0.132 a 1.49,1.49 0 0 1 0.636,0.374 c 0.187,0.175 0.33,0.4 0.43,0.674 0.112,0.262 0.168,0.58 0.168,0.954 0,0.724 -0.2,1.266 -0.6,1.628 -0.387,0.35 -0.855,0.524 -1.404,0.524 -0.56,0 -1.05,-0.263 -1.437,-0.612 -0.374,-0.35 -0.55,-0.892 -0.55,-1.585 0.002,-0.705 0.19,-1.247 0.564,-1.584 z"
       stroke-linecap="square"
       id="path7262"
       style="stroke:#eeeef1;stroke-opacity:1;fill:#eeeef1;fill-opacity:1" />
    <path
       d="m 185.126,42.018 c -0.736,0 -1.404,-0.08 -2.002,-0.243 -0.598,-0.163 -1.142,-0.374 -1.628,-0.636 -0.474,-0.274 -0.898,-0.593 -1.273,-0.955 a 9.24,9.24 0 0 1 -0.973,-1.141 h -0.225 l 0.112,1.216 0.075,1 0.037,0.805 v 8.777 h -3.406 V 21.096 h 2.77 l 0.487,2.77 h 0.15 a 8.32,8.32 0 0 1 0.973,-1.216 5.43,5.43 0 0 1 1.254,-0.992 c 0.487,-0.287 1.03,-0.512 1.628,-0.674 0.6,-0.175 1.273,-0.262 2.02,-0.262 1.173,0 2.24,0.225 3.2,0.674 a 6.46,6.46 0 0 1 2.451,2.021 c 0.686,0.886 1.216,2 1.6,3.312 0.384,1.312 0.56,2.857 0.56,4.604 0,1.76 -0.187,3.306 -0.56,4.64 -0.374,1.322 -0.905,2.433 -1.6,3.33 -0.674,0.898 -1.5,1.578 -2.45,2.04 -0.96,0.45 -2.264,0.674 -3.436,0.674 m -0.42,-18.47 c -0.948,0 -1.753,0.143 -2.414,0.43 a 3.78,3.78 0 0 0 -1.591,1.31 c -0.4,0.586 -0.7,1.316 -0.898,2.2 -0.187,0.873 -0.293,1.902 -0.318,3.088 v 0.767 c 0,1.26 0.08,2.383 0.243,3.368 0.175,0.973 0.462,1.797 0.86,2.47 a 4.13,4.13 0 0 0 1.628,1.516 c 0.674,0.337 1.516,0.505 2.526,0.505 1.684,0 2.92,-0.68 3.705,-2.04 0.798,-1.36 1.198,-3.312 1.198,-5.857 0,-2.595 -0.4,-4.535 -1.198,-5.82 -0.786,-1.285 -2.034,-1.927 -3.743,-1.927 M 204.3,39.23 c 0.225,0 0.474,-0.02 0.75,-0.038 l 0.823,-0.094 0.7,-0.132 0.505,-0.132 v 2.583 c -0.162,0.075 -0.368,0.15 -0.618,0.225 -0.25,0.075 -0.524,0.136 -0.823,0.187 a 7.59,7.59 0 0 1 -0.936,0.132 8.12,8.12 0 0 1 -0.954,0.055 7.42,7.42 0 0 1 -2.152,-0.3 4.06,4.06 0 0 1 -1.722,-1.029 c -0.474,-0.487 -0.848,-1.14 -1.123,-1.965 -0.274,-0.836 -0.412,-1.884 -0.412,-3.144 v -11.92 h -2.9 v -1.516 l 2.9,-1.46 1.46,-4.304 h 1.965 v 4.716 h 5.165 v 2.564 h -5.165 v 11.92 c 0,1.2 0.193,2.12 0.58,2.732 0.4,0.6 1.048,0.917 1.946,0.917"
       id="path7264"
       style="stroke:#eeeef1;stroke-opacity:1;fill:#eeeef1;fill-opacity:1" />
  </g>
</svg>
