<?xml version="1.0" encoding="UTF-8" standalone="no"?>
<!-- Uploaded to: SVG Repo, www.svgrepo.com, Generator: SVG Repo Mixer Tools -->

<svg
   width="511.80472"
   height="195.48686"
   viewBox="5.591 -165.238 303.75674 116.02169"
   version="1.1"
   id="svg503"
   sodipodi:docname="python-3-logo.svg"
   inkscape:version="1.2.2 (b0a8486541, 2022-12-01)"
   xmlns:inkscape="http://www.inkscape.org/namespaces/inkscape"
   xmlns:sodipodi="http://sodipodi.sourceforge.net/DTD/sodipodi-0.dtd"
   xmlns="http://www.w3.org/2000/svg"
   xmlns:svg="http://www.w3.org/2000/svg">
  <defs
     id="defs507" />
  <sodipodi:namedview
     id="namedview505"
     pagecolor="#ffffff"
     bordercolor="#000000"
     borderopacity="0.25"
     inkscape:showpageshadow="2"
     inkscape:pageopacity="0.0"
     inkscape:pagecheckerboard="0"
     inkscape:deskcolor="#d1d1d1"
     showgrid="false"
     inkscape:zoom="1.28375"
     inkscape:cx="232.13242"
     inkscape:cy="179.55209"
     inkscape:window-width="1452"
     inkscape:window-height="1233"
     inkscape:window-x="2487"
     inkscape:window-y="734"
     inkscape:window-maximized="0"
     inkscape:current-layer="svg503" />
  <path
     d="m 44.722953,-104.8588 c 0,-14.562 -4.152,-22.038 -12.457,-22.447 -3.305,-0.156 -6.53,0.37 -9.669,1.589 -2.505,0.896 -4.191,1.784 -5.078,2.681 v 34.758002 c 5.312,3.334 10.029,4.884 14.143,4.64 8.703,-0.577 13.061,-7.643 13.061,-21.221002 z m 10.244,0.604 c 0,7.398002 -1.735,13.539002 -5.225,18.422002 -3.889,5.527 -9.279,8.373 -16.17,8.529 -5.195,0.165 -10.547,-1.462 -16.054,-4.874 v 31.591002 l -8.9090004,-3.178 V -123.8848 c 1.4620004,-1.793 3.3440004,-3.333 5.6240004,-4.64 5.303,-3.09 11.745,-4.678 19.329,-4.756 l 0.126,0.126 c 6.931,-0.087 12.271,2.759 16.024,8.529 3.5,5.293 5.255,12.077 5.255,20.371 z m 54.446997,20.733002 c 0,9.923 -0.994,16.794 -2.982,20.615 -1.998,3.82 -5.8,6.871 -11.413997,9.143002 -4.552,1.793 -9.475,2.768 -14.757,2.934 l -1.473,-5.614002 c 5.371,-0.73 9.153,-1.462 11.346,-2.193 4.318,-1.462 7.281,-3.703 8.909,-6.706 1.305997,-2.446 1.948997,-7.115 1.948997,-14.025 v -2.32 c -6.091997,2.769 -12.475997,4.143 -19.151997,4.143 -4.387,0 -8.256,-1.374 -11.59,-4.143 -3.743,-3.012 -5.614,-6.832 -5.614,-11.462 V -130.2298 l 8.909,-3.051 v 37.321002 c 0,3.986 1.286,7.057 3.859,9.211 2.573,2.154 5.907,3.188 9.991,3.109 4.084,-0.088 8.46,-1.667 13.108997,-4.757 V -131.9368 h 8.909 v 48.415002 z m 34.777,5.731 a 35.51,35.51 0 0 1 -2.934,0.126 c -5.039,0 -8.968,-1.198 -11.774,-3.606 -2.798,-2.407 -4.201,-5.73 -4.201,-9.971 V -126.3318 h -6.102 v -5.604 h 6.102 v -14.88399 l 8.899,-3.168 v 18.05199 h 10.01 v 5.604 h -10.01 v 34.846002 c 0,3.344 0.896,5.712 2.689,7.097 1.54,1.14 3.987,1.793 7.32,1.959 v 4.639 z m 53.941,-0.731 h -8.909 V -112.9098 c 0,-3.499 -0.818,-6.511 -2.446,-9.025 -1.881,-2.847 -4.493,-4.27 -7.847,-4.27 -4.084,0 -9.191,2.154 -15.322,6.462 v 41.221002 h -8.908 v -82.196992 l 8.908,-2.807 v 37.43799 c 5.692,-4.143 11.911,-6.219 18.666,-6.219 4.718,0 8.538,1.589 11.463,4.757 2.934,3.167 4.396,7.115 4.396,11.833 v 37.195002 z m 47.351,-27.740002 c 0,-5.595 -1.062,-10.215 -3.178,-13.87 -2.515,-4.454 -6.423,-6.804 -11.706,-7.047 -9.767,0.565 -14.641,7.563 -14.641,20.976 0,6.15 1.014,11.287002 3.061,15.410002 2.612,5.254 6.531,7.847 11.756,7.759 9.805,-0.079 14.708,-7.818 14.708,-23.228002 z m 9.757,0.058 c 0,7.964002 -2.037,14.592002 -6.102,19.884002 -4.475,5.927 -10.653,8.899 -18.539,8.899 -7.817,0 -13.909,-2.973 -18.305,-8.899 -3.987,-5.292 -5.976,-11.92 -5.976,-19.884002 0,-7.485 2.154,-13.782 6.463,-18.909 4.552,-5.439 10.536,-8.168 17.935,-8.168 7.397,0 13.421,2.729 18.061,8.168 4.309,5.127 6.463,11.424 6.463,18.909 z m 51.074,27.682002 h -8.909 V -114.8588 c 0,-3.986 -1.198,-7.096 -3.596,-9.338 -2.398,-2.232 -5.596,-3.314 -9.582,-3.227 -4.229,0.078 -8.256,1.462 -12.076,4.143 v 44.759002 h -8.909 V -124.3818 c 5.127,-3.732 9.845,-6.17 14.153,-7.31 4.064,-1.062 7.651,-1.589 10.741,-1.589 2.114,0 4.104,0.204 5.975,0.614 3.499,0.809 6.346,2.31 8.538,4.513 2.447,2.437 3.665,5.36 3.665,8.782 z"
     fill="#646464"
     id="path478"
     style="fill:#eeeef1;fill-opacity:1" />
  <linearGradient
     id="a"
     gradientUnits="userSpaceOnUse"
     x1="-2031.312"
     y1="275.86801"
     x2="-1922.296"
     y2="182.075"
     gradientTransform="matrix(0.5625,0,0,-0.568,1145.56,166.282)">
    <stop
       offset="0"
       stop-color="#5a9fd4"
       id="stop480" />
    <stop
       offset="1"
       stop-color="#306998"
       id="stop482" />
  </linearGradient>
  <linearGradient
     id="b"
     gradientUnits="userSpaceOnUse"
     x1="-1880.151"
     y1="125.305"
     x2="-1919.08"
     y2="180.384"
     gradientTransform="matrix(0.5625,0,0,-0.568,1145.56,166.282)">
    <stop
       offset="0"
       stop-color="#ffd43b"
       id="stop487" />
    <stop
       offset="1"
       stop-color="#ffe873"
       id="stop489" />
  </linearGradient>
  <radialGradient
     id="c"
     cx="-3393.238"
     cy="376.79099"
     r="29.037001"
     gradientTransform="matrix(0,-0.2399,-1.0547,0,458.797,-680.1)"
     gradientUnits="userSpaceOnUse">
    <stop
       offset="0"
       stop-color="#b8b8b8"
       stop-opacity=".498"
       id="stop496" />
    <stop
       offset="1"
       stop-color="#7f7f7f"
       stop-opacity="0"
       id="stop498" />
  </radialGradient>
</svg>
